#!OML:ASF H:\Dans Jumps\Project 1\Capture day 1\Session 1\subject.ASF
:FULLY-SPECIFIED
:DEGREES
719
root 0.568616 17.7147 2.36236 5.38624 -0.673702 -1.66721
lowerback -0.682864 -0.349249 -0.123275
upperback 2.85285 -0.51324 1.72026
thorax 3.33089 -0.285006 1.82027
lowerneck -12.2424 0.297515 -1.8549
upperneck 37.3684 0.567292 1.03837
head 15.0446 0.114881 0.856308
rclavicle 2.08724e-015 1.33186e-014
rhumerus -24.037 -11.4478 -82.0652
rradius 27.347
rwrist 29.2345
rhand -18.8772 -26.2713
rfingers 7.12502
rthumb 7.42372 -56.121
lclavicle 2.08724e-015 1.33186e-014
lhumerus -20.725 -5.29311 89.3034
lradius 22.4297
lwrist 8.07817
lhand -24.8748 -3.22345
lfingers 7.12502
lthumb 1.63247 26.75
rfemur -15.0891 -2.54265 19.8621
rtibia 22.01
rfoot -11.0099 -2.4817
rtoes 13.4663
lfemur -13.6643 7.95935 -17.584
ltibia 19.4159
lfoot -8.56391 4.38529
ltoes -1.48548
720
root 0.567908 17.7147 2.36423 5.38675 -0.685505 -1.66773
lowerback -0.700997 -0.347609 -0.127147
upperback 2.85529 -0.511192 1.72162
thorax 3.34364 -0.284178 1.82383
lowerneck -12.2359 0.296754 -1.85616
upperneck 37.3633 0.56509 1.04135
head 15.0406 0.114185 0.857329
rclavicle 5.06901e-015 -6.16232e-015
rhumerus -24.1182 -11.7442 -81.9455
rradius 27.0945
rwrist 29.5303
rhand -18.8561 -26.3054
rfingers 7.12502
rthumb 7.44406 -56.1544
lclavicle 5.06901e-015 -6.16232e-015
lhumerus -20.8116 -5.26234 89.3325
lradius 22.2482
lwrist 7.87729
lhand -24.9112 -3.37129
lfingers 7.12502
lthumb 1.59733 26.6025
rfemur -15.0829 -2.54141 19.8648
rtibia 22.0071
rfoot -11.0142 -2.47139
rtoes 13.4829
lfemur -13.6518 7.96136 -17.5798
ltibia 19.4097
lfoot -8.56752 4.39507
ltoes -1.48851
721
root 0.567076 17.7148 2.36617 5.38567 -0.696747 -1.66285
lowerback -0.717225 -0.347224 -0.137739
upperback 2.85815 -0.510588 1.72114
thorax 3.35585 -0.284225 1.82924
lowerneck -12.225 0.296059 -1.85524
upperneck 37.3552 0.563069 1.04203
head 15.0342 0.11357 0.856958
rclavicle 4.87022e-015 -2.98177e-015
rhumerus -24.2029 -12.0474 -81.8237
rradius 26.8431
rwrist 29.8322
rhand -18.8375 -26.3335
rfingers 7.12502
rthumb 7.46198 -56.1819
lclavicle 4.87022e-015 -2.98177e-015
lhumerus -20.8949 -5.24117 89.3595
lradius 22.0557
lwrist 7.67478
lhand -24.9473 -3.51012
lfingers 7.12502
lthumb 1.56248 26.4639
rfemur -15.0751 -2.54404 19.8623
rtibia 22.0047
rfoot -11.0186 -2.45975
rtoes 13.4927
lfemur -13.6353 7.96531 -17.5811
ltibia 19.3986
lfoot -8.56983 4.40204
ltoes -1.49115
722
root 0.566229 17.7149 2.36827 5.38305 -0.706523 -1.65837
lowerback -0.732253 -0.346936 -0.146898
upperback 2.8624 -0.510133 1.71992
thorax 3.3688 -0.284308 1.83307
lowerneck -12.217 0.295022 -1.85259
upperneck 37.3482 0.560309 1.0422
head 15.029 0.112804 0.855974
rclavicle -2.33572e-015 -1.59028e-015
rhumerus -24.2883 -12.3532 -81.7004
rradius 26.5926
rwrist 30.1297
rhand -18.8227 -26.3567
rfingers 7.12502
rthumb 7.47634 -56.2046
lclavicle -2.33572e-015 -1.59028e-015
lhumerus -20.9752 -5.22445 89.3841
lradius 21.8627
lwrist 7.49132
lhand -24.9748 -3.61827
lfingers 7.12502
lthumb 1.5359 26.3559
rfemur -15.0648 -2.54667 19.86
rtibia 22.0021
rfoot -11.0238 -2.44919
rtoes 13.5104
lfemur -13.616 7.96998 -17.5819
ltibia 19.3857
lfoot -8.57208 4.40747
ltoes -1.49779
